<?xml version="1.0" standalone="no"?>
<!DOCTYPE svg PUBLIC "-//W3C//DTD SVG 20010904//EN"
 "http://www.w3.org/TR/2001/REC-SVG-20010904/DTD/svg10.dtd">
<svg version="1.0" xmlns="http://www.w3.org/2000/svg"
 width="296.000000pt" height="296.000000pt" viewBox="0 0 296.000000 296.000000"
 preserveAspectRatio="xMidYMid meet">
<metadata>
Created by potrace 1.11, written by Peter Selinger 2001-2013
</metadata>
<g transform="translate(0.000000,296.000000) scale(0.100000,-0.100000)"
fill="#000000" stroke="none">
<path d="M1773 2565 c-3 -9 -3 -18 -1 -21 3 -3 8 4 11 16 6 23 -1 27 -10 5z"/>
<path d="M1827 2559 c4 -13 8 -18 11 -10 2 7 -1 18 -6 23 -8 8 -9 4 -5 -13z"/>
<path d="M1320 2560 c0 -5 5 -10 10 -10 6 0 10 5 10 10 0 6 -4 10 -10 10 -5 0
-10 -4 -10 -10z"/>
<path d="M1680 2563 c8 -3 19 -11 23 -17 6 -7 7 -6 4 4 -2 8 -12 16 -23 17
-13 2 -15 1 -4 -4z"/>
<path d="M1530 2546 c7 -7 13 -7 20 0 6 6 3 10 -10 10 -13 0 -16 -4 -10 -10z"/>
<path d="M1432 2530 c0 -14 2 -19 5 -12 2 6 2 18 0 25 -3 6 -5 1 -5 -13z"/>
<path d="M2068 2503 c6 -2 18 -2 25 0 6 3 1 5 -13 5 -14 0 -19 -2 -12 -5z"/>
<path d="M2054 2470 c2 -24 50 -19 53 5 1 16 1 16 -3 3 -6 -21 -40 -24 -47 -5
-2 7 -3 6 -3 -3z"/>
<path d="M1788 2473 c7 -3 16 -2 19 1 4 3 -2 6 -13 5 -11 0 -14 -3 -6 -6z"/>
<path d="M1908 2473 c7 -3 16 -2 19 1 4 3 -2 6 -13 5 -11 0 -14 -3 -6 -6z"/>
<path d="M1688 2453 c7 -3 16 -2 19 1 4 3 -2 6 -13 5 -11 0 -14 -3 -6 -6z"/>
<path d="M1822 2440 c0 -14 2 -19 5 -12 2 6 2 18 0 25 -3 6 -5 1 -5 -13z"/>
<path d="M1371 2434 c0 -11 3 -14 6 -6 3 7 2 16 -1 19 -3 4 -6 -2 -5 -13z"/>
<path d="M1427 2431 c-4 -17 -3 -21 5 -13 5 5 8 16 6 23 -3 8 -7 3 -11 -10z"/>
<path d="M2021 2414 c0 -11 3 -14 6 -6 3 7 2 16 -1 19 -3 4 -6 -2 -5 -13z"/>
<path d="M1960 2380 c0 -5 7 -7 15 -4 8 4 15 8 15 10 0 2 -7 4 -15 4 -8 0 -15
-4 -15 -10z"/>
<path d="M1045 2360 c-16 -7 -17 -9 -3 -9 9 -1 20 4 23 9 7 11 7 11 -20 0z"/>
<path d="M2208 2363 c7 -3 16 -2 19 1 4 3 -2 6 -13 5 -11 0 -14 -3 -6 -6z"/>
<path d="M1590 2350 c0 -5 7 -10 15 -10 8 0 15 5 15 10 0 6 -7 10 -15 10 -8 0
-15 -4 -15 -10z"/>
<path d="M1464 2339 c-8 -14 11 -33 25 -25 11 7 4 36 -9 36 -5 0 -12 -5 -16
-11z"/>
<path d="M1875 2340 c-4 -7 -3 -16 3 -22 14 -14 45 -2 40 15 -6 16 -34 21 -43
7z"/>
<path d="M1148 2317 c-3 -19 -2 -25 4 -19 6 6 8 18 6 28 -3 14 -5 12 -10 -9z"/>
<path d="M1636 2314 c-22 -21 -20 -67 2 -87 40 -37 102 -9 102 46 0 34 -24 57
-60 57 -16 0 -36 -7 -44 -16z"/>
<path d="M2148 2323 c6 -2 18 -2 25 0 6 3 1 5 -13 5 -14 0 -19 -2 -12 -5z"/>
<path d="M1775 2299 c-8 -24 2 -38 32 -44 24 -4 37 17 28 46 -9 27 -52 25 -60
-2z"/>
<path d="M1340 2285 c0 -8 7 -15 15 -15 8 0 15 7 15 15 0 8 -7 15 -15 15 -8 0
-15 -7 -15 -15z"/>
<path d="M1504 2286 c-13 -33 0 -51 36 -51 29 0 36 4 38 24 2 13 -2 28 -10 32
-21 14 -58 10 -64 -5z"/>
<path d="M1870 2245 c0 -32 28 -45 46 -21 17 24 7 46 -22 46 -19 0 -24 -5 -24
-25z"/>
<path d="M1432 2249 c2 -6 8 -10 13 -10 5 0 11 4 13 10 2 6 -4 11 -13 11 -9 0
-15 -5 -13 -11z"/>
<path d="M2271 2244 c0 -11 3 -14 6 -6 3 7 2 16 -1 19 -3 4 -6 -2 -5 -13z"/>
<path d="M978 2243 c7 -3 16 -2 19 1 4 3 -2 6 -13 5 -11 0 -14 -3 -6 -6z"/>
<path d="M900 2228 c0 -9 -6 -19 -12 -21 -10 -4 -10 -6 0 -6 14 -1 28 26 18
36 -3 4 -6 -1 -6 -9z"/>
<path d="M1322 2231 c-8 -5 -12 -22 -10 -42 3 -29 7 -34 31 -37 34 -4 57 13
57 42 0 39 -43 60 -78 37z"/>
<path d="M2210 2225 c0 -8 5 -15 10 -15 6 0 10 7 10 15 0 8 -4 15 -10 15 -5 0
-10 -7 -10 -15z"/>
<path d="M1235 2220 c-3 -5 -1 -10 4 -10 6 0 11 5 11 10 0 6 -2 10 -4 10 -3 0
-8 -4 -11 -10z"/>
<path d="M943 2195 c-3 -9 -3 -19 1 -22 3 -4 6 1 6 10 0 8 8 18 18 20 16 4 16
5 -1 6 -10 0 -20 -6 -24 -14z"/>
<path d="M1160 2190 c0 -13 5 -20 13 -17 6 2 12 10 12 17 0 7 -6 15 -12 18 -8
2 -13 -5 -13 -18z"/>
<path d="M1755 2200 c-4 -6 -3 -16 3 -22 6 -6 12 -6 17 2 4 6 3 16 -3 22 -6 6
-12 6 -17 -2z"/>
<path d="M991 2184 c0 -11 3 -14 6 -6 3 7 2 16 -1 19 -3 4 -6 -2 -5 -13z"/>
<path d="M1997 2183 c-4 -3 -7 -15 -7 -25 0 -23 48 -25 57 -2 9 23 -32 45 -50
27z"/>
<path d="M1832 2153 c2 -22 9 -29 31 -31 24 -3 27 0 27 27 0 28 -3 31 -31 31
-27 0 -30 -3 -27 -27z"/>
<path d="M2233 2165 c-3 -9 -3 -19 1 -22 3 -4 6 1 6 10 0 8 8 18 18 20 16 4
16 5 -1 6 -10 0 -20 -6 -24 -14z"/>
<path d="M1207 2163 c-14 -4 -17 -13 -15 -41 2 -30 7 -38 26 -40 30 -4 54 16
50 41 -4 24 -37 45 -61 40z"/>
<path d="M958 2153 c7 -3 16 -2 19 1 4 3 -2 6 -13 5 -11 0 -14 -3 -6 -6z"/>
<path d="M2308 2133 c7 -3 16 -2 19 1 4 3 -2 6 -13 5 -11 0 -14 -3 -6 -6z"/>
<path d="M1924 2116 c-14 -36 13 -57 46 -36 12 7 12 13 4 27 -15 24 -43 28
-50 9z"/>
<path d="M1300 2100 c0 -5 4 -10 9 -10 6 0 13 5 16 10 3 6 -1 10 -9 10 -9 0
-16 -4 -16 -10z"/>
<path d="M1560 2102 c0 -5 7 -9 15 -9 8 0 15 4 15 9 0 4 -7 8 -15 8 -8 0 -15
-4 -15 -8z"/>
<path d="M878 2073 c6 -2 18 -2 25 0 6 3 1 5 -13 5 -14 0 -19 -2 -12 -5z"/>
<path d="M1132 2069 c2 -6 8 -10 13 -10 5 0 11 4 13 10 2 6 -4 11 -13 11 -9 0
-15 -5 -13 -11z"/>
<path d="M1638 2053 c5 -21 7 -23 10 -9 2 10 0 22 -6 28 -6 6 -7 0 -4 -19z"/>
<path d="M2390 2069 c0 -5 5 -7 10 -4 6 3 10 8 10 11 0 2 -4 4 -10 4 -5 0 -10
-5 -10 -11z"/>
<path d="M2458 2073 c7 -3 16 -2 19 1 4 3 -2 6 -13 5 -11 0 -14 -3 -6 -6z"/>
<path d="M1997 2063 c-15 -14 -7 -43 12 -43 26 0 36 17 21 35 -14 16 -23 19
-33 8z"/>
<path d="M2086 2053 c-8 -20 19 -44 40 -36 8 3 14 16 14 29 0 19 -5 24 -24 24
-13 0 -27 -8 -30 -17z"/>
<path d="M1027 2032 c-34 -37 -12 -82 41 -82 20 0 52 29 52 48 0 21 -34 52
-56 52 -11 0 -28 -8 -37 -18z"/>
<path d="M1360 2043 c14 -3 29 -10 33 -17 6 -7 7 -6 4 4 -2 8 -16 16 -33 17
-25 1 -26 0 -4 -4z"/>
<path d="M1560 2040 c0 -5 5 -10 10 -10 6 0 10 5 10 10 0 6 -4 10 -10 10 -5 0
-10 -4 -10 -10z"/>
<path d="M1154 2014 c-8 -31 7 -48 35 -39 23 7 28 34 9 53 -19 19 -37 14 -44
-14z"/>
<path d="M798 2013 c6 -2 18 -2 25 0 6 3 1 5 -13 5 -14 0 -19 -2 -12 -5z"/>
<path d="M1275 1990 c-3 -5 1 -10 10 -10 9 0 13 5 10 10 -3 6 -8 10 -10 10 -2
0 -7 -4 -10 -10z"/>
<path d="M1490 1986 c0 -8 -6 -17 -12 -19 -8 -3 -6 -6 5 -6 11 -1 17 6 17 19
0 11 -2 20 -5 20 -3 0 -5 -6 -5 -14z"/>
<path d="M1588 1983 c7 -3 16 -2 19 1 4 3 -2 6 -13 5 -11 0 -14 -3 -6 -6z"/>
<path d="M2050 1976 c0 -9 7 -16 16 -16 17 0 14 22 -4 28 -7 2 -12 -3 -12 -12z"/>
<path d="M870 1960 c0 -5 4 -10 9 -10 6 0 13 5 16 10 3 6 -1 10 -9 10 -9 0
-16 -4 -16 -10z"/>
<path d="M1841 1934 c0 -11 3 -14 6 -6 3 7 2 16 -1 19 -3 4 -6 -2 -5 -13z"/>
<path d="M2400 1940 c0 -5 5 -10 10 -10 6 0 10 5 10 10 0 6 -4 10 -10 10 -5 0
-10 -4 -10 -10z"/>
<path d="M2450 1941 c0 -6 4 -13 10 -16 6 -3 7 1 4 9 -7 18 -14 21 -14 7z"/>
<path d="M1728 1923 c7 -3 16 -2 19 1 4 3 -2 6 -13 5 -11 0 -14 -3 -6 -6z"/>
<path d="M2067 1923 c-16 -15 -6 -33 18 -33 18 0 25 5 25 20 0 20 -28 28 -43
13z"/>
<path d="M794 1910 c2 -16 20 -14 24 2 3 10 2 10 -6 -1 -7 -9 -11 -10 -15 -2
-4 7 -5 8 -3 1z"/>
<path d="M1012 1903 c-13 -26 -4 -43 23 -43 29 0 38 13 30 40 -8 25 -41 26
-53 3z"/>
<path d="M2140 1896 c0 -21 5 -26 25 -26 21 0 23 3 16 23 -12 33 -41 35 -41 3z"/>
<path d="M1218 1898 c5 -5 16 -8 23 -6 8 3 3 7 -10 11 -17 4 -21 3 -13 -5z"/>
<path d="M1130 1886 c0 -9 7 -16 16 -16 17 0 14 22 -4 28 -7 2 -12 -3 -12 -12z"/>
<path d="M868 1873 c7 -3 16 -2 19 1 4 3 -2 6 -13 5 -11 0 -14 -3 -6 -6z"/>
<path d="M2212 1871 c-8 -4 -12 -19 -10 -32 2 -18 10 -25 31 -27 24 -3 27 0
27 26 0 18 -6 32 -16 36 -19 7 -16 8 -32 -3z"/>
<path d="M1660 1860 c0 -5 5 -10 10 -10 6 0 10 5 10 10 0 6 -4 10 -10 10 -5 0
-10 -4 -10 -10z"/>
<path d="M2398 1853 c7 -3 16 -2 19 1 4 3 -2 6 -13 5 -11 0 -14 -3 -6 -6z"/>
<path d="M1610 1827 c0 -8 -8 -18 -17 -20 -17 -4 -17 -5 0 -6 18 -1 35 25 23
36 -3 4 -6 -1 -6 -10z"/>
<path d="M2115 1830 c-9 -14 4 -50 17 -50 19 0 37 34 26 47 -13 16 -34 17 -43
3z"/>
<path d="M1161 1814 c0 -11 3 -14 6 -6 3 7 2 16 -1 19 -3 4 -6 -2 -5 -13z"/>
<path d="M1380 1815 c0 -8 7 -15 15 -15 8 0 15 7 15 15 0 8 -7 15 -15 15 -8 0
-15 -7 -15 -15z"/>
<path d="M1750 1820 c0 -5 5 -10 10 -10 6 0 10 5 10 10 0 6 -4 10 -10 10 -5 0
-10 -4 -10 -10z"/>
<path d="M1265 1810 c-3 -5 -1 -10 4 -10 6 0 11 5 11 10 0 6 -2 10 -4 10 -3 0
-8 -4 -11 -10z"/>
<path d="M1938 1813 c7 -3 16 -2 19 1 4 3 -2 6 -13 5 -11 0 -14 -3 -6 -6z"/>
<path d="M798 1803 c7 -3 16 -2 19 1 4 3 -2 6 -13 5 -11 0 -14 -3 -6 -6z"/>
<path d="M1004 1799 c-3 -6 -2 -15 4 -21 13 -13 32 -2 32 18 0 16 -26 19 -36
3z"/>
<path d="M2398 1803 c7 -3 16 -2 19 1 4 3 -2 6 -13 5 -11 0 -14 -3 -6 -6z"/>
<path d="M850 1788 c0 -4 4 -8 9 -8 6 0 12 4 15 8 3 5 -1 9 -9 9 -8 0 -15 -4
-15 -9z"/>
<path d="M1100 1770 c0 -5 5 -10 10 -10 6 0 10 5 10 10 0 6 -4 10 -10 10 -5 0
-10 -4 -10 -10z"/>
<path d="M1350 1771 c13 -10 13 -12 0 -22 -13 -9 -13 -10 0 -6 8 2 15 10 15
17 0 7 -7 15 -15 17 -13 4 -13 3 0 -6z"/>
<path d="M2180 1770 c0 -5 5 -10 10 -10 6 0 10 5 10 10 0 6 -4 10 -10 10 -5 0
-10 -4 -10 -10z"/>
<path d="M2262 1764 c4 -21 22 -23 26 -1 2 10 -3 17 -13 17 -10 0 -15 -6 -13
-16z"/>
<path d="M808 1763 c6 -2 18 -2 25 0 6 3 1 5 -13 5 -14 0 -19 -2 -12 -5z"/>
<path d="M2528 1763 c7 -3 16 -2 19 1 4 3 -2 6 -13 5 -11 0 -14 -3 -6 -6z"/>
<path d="M2122 1747 c-9 -11 -10 -17 -2 -22 15 -9 23 -1 18 21 -3 15 -4 16
-16 1z"/>
<path d="M782 1730 c0 -14 2 -19 5 -12 2 6 2 18 0 25 -3 6 -5 1 -5 -13z"/>
<path d="M1153 1735 c-3 -9 -3 -19 1 -22 3 -4 6 1 6 10 0 8 6 18 13 20 9 4 9
6 -1 6 -7 1 -15 -6 -19 -14z"/>
<path d="M1743 1734 c-8 -22 11 -37 36 -29 25 8 28 30 5 39 -25 9 -34 7 -41
-10z"/>
<path d="M1010 1730 c0 -5 7 -10 15 -10 8 0 15 5 15 10 0 6 -7 10 -15 10 -8 0
-15 -4 -15 -10z"/>
<path d="M1468 1718 c-8 -21 2 -38 23 -38 24 0 37 29 18 41 -20 12 -36 11 -41
-3z"/>
<path d="M2182 1718 c-26 -26 -6 -68 33 -68 11 0 26 9 33 20 25 40 -32 82 -66
48z"/>
<path d="M1054 1689 c-23 -26 -9 -53 31 -57 42 -5 60 32 29 62 -21 21 -37 20
-60 -5z"/>
<path d="M1271 1694 c0 -11 3 -14 6 -6 3 7 2 16 -1 19 -3 4 -6 -2 -5 -13z"/>
<path d="M399 1684 c-11 -14 -11 -18 5 -29 24 -18 48 -8 44 19 -4 26 -30 32
-49 10z"/>
<path d="M1421 1658 c0 -14 -7 -29 -13 -31 -10 -4 -10 -6 0 -6 16 -1 25 22 19
46 -3 12 -5 9 -6 -9z"/>
<path d="M820 1650 c0 -5 5 -10 11 -10 5 0 7 5 4 10 -3 6 -8 10 -11 10 -2 0
-4 -4 -4 -10z"/>
<path d="M1900 1639 c0 -5 5 -7 10 -4 6 3 10 8 10 11 0 2 -4 4 -10 4 -5 0 -10
-5 -10 -11z"/>
<path d="M1965 1639 c-11 -16 -1 -19 13 -3 7 8 8 14 3 14 -5 0 -13 -5 -16 -11z"/>
<path d="M1540 1630 c0 -5 5 -10 10 -10 6 0 10 5 10 10 0 6 -4 10 -10 10 -5 0
-10 -4 -10 -10z"/>
<path d="M2150 1625 c0 -8 5 -15 10 -15 6 0 10 7 10 15 0 8 -4 15 -10 15 -5 0
-10 -7 -10 -15z"/>
<path d="M553 1613 c-7 -2 -13 -16 -13 -29 0 -19 5 -24 24 -24 30 0 40 24 20
45 -9 8 -16 15 -17 14 -1 0 -8 -3 -14 -6z"/>
<path d="M1591 1604 c0 -11 3 -14 6 -6 3 7 2 16 -1 19 -3 4 -6 -2 -5 -13z"/>
<path d="M2204 1605 c-8 -21 2 -45 20 -45 17 0 28 24 20 45 -4 8 -13 15 -20
15 -8 0 -17 -7 -20 -15z"/>
<path d="M1070 1596 c-18 -23 -8 -61 17 -64 33 -5 50 33 27 59 -21 23 -28 24
-44 5z"/>
<path d="M1800 1591 c0 -14 5 -19 15 -14 17 6 15 25 -3 31 -7 2 -12 -5 -12
-17z"/>
<path d="M1191 1574 c0 -11 3 -14 6 -6 3 7 2 16 -1 19 -3 4 -6 -2 -5 -13z"/>
<path d="M1325 1570 c-3 -5 -1 -10 4 -10 6 0 11 5 11 10 0 6 -2 10 -4 10 -3 0
-8 -4 -11 -10z"/>
<path d="M1538 1573 c7 -3 16 -2 19 1 4 3 -2 6 -13 5 -11 0 -14 -3 -6 -6z"/>
<path d="M1520 1551 c0 -6 4 -13 10 -16 6 -3 7 1 4 9 -7 18 -14 21 -14 7z"/>
<path d="M1716 1541 c-4 -7 -5 -15 -2 -18 9 -9 19 4 14 18 -4 11 -6 11 -12 0z"/>
<path d="M2136 1535 c-10 -27 -7 -35 15 -35 15 0 20 5 17 22 -4 27 -23 35 -32
13z"/>
<path d="M1770 1515 c0 -8 7 -15 15 -15 8 0 15 7 15 15 0 8 -7 15 -15 15 -8 0
-15 -7 -15 -15z"/>
<path d="M1120 1495 c0 -18 5 -25 20 -25 15 0 20 7 20 25 0 18 -5 25 -20 25
-15 0 -20 -7 -20 -25z"/>
<path d="M1250 1510 c0 -5 5 -10 10 -10 6 0 10 5 10 10 0 6 -4 10 -10 10 -5 0
-10 -4 -10 -10z"/>
<path d="M1318 1513 c7 -3 16 -2 19 1 4 3 -2 6 -13 5 -11 0 -14 -3 -6 -6z"/>
<path d="M2210 1505 c0 -8 7 -15 15 -15 8 0 15 7 15 15 0 8 -7 15 -15 15 -8 0
-15 -7 -15 -15z"/>
<path d="M457 1494 c-13 -13 -7 -52 8 -58 27 -10 46 5 43 33 -3 26 -35 41 -51
25z"/>
<path d="M550 1475 c0 -8 5 -15 10 -15 6 0 10 7 10 15 0 8 -4 15 -10 15 -5 0
-10 -7 -10 -15z"/>
<path d="M1695 1470 c-3 -5 -1 -10 4 -10 6 0 11 5 11 10 0 6 -2 10 -4 10 -3 0
-8 -4 -11 -10z"/>
<path d="M956 1455 c-3 -8 -1 -15 4 -15 6 0 10 7 10 15 0 8 -2 15 -4 15 -2 0
-6 -7 -10 -15z"/>
<path d="M1318 1463 c7 -3 16 -2 19 1 4 3 -2 6 -13 5 -11 0 -14 -3 -6 -6z"/>
<path d="M1532 1450 c0 -14 2 -19 5 -12 2 6 2 18 0 25 -3 6 -5 1 -5 -13z"/>
<path d="M880 1450 c0 -5 5 -10 10 -10 6 0 10 5 10 10 0 6 -4 10 -10 10 -5 0
-10 -4 -10 -10z"/>
<path d="M1183 1449 c-16 -16 -5 -39 19 -39 14 0 19 6 16 22 -4 25 -19 33 -35
17z"/>
<path d="M1808 1453 c7 -3 16 -2 19 1 4 3 -2 6 -13 5 -11 0 -14 -3 -6 -6z"/>
<path d="M2130 1445 c0 -8 7 -15 15 -15 8 0 15 7 15 15 0 8 -7 15 -15 15 -8 0
-15 -7 -15 -15z"/>
<path d="M1781 1424 c0 -11 3 -14 6 -6 3 7 2 16 -1 19 -3 4 -6 -2 -5 -13z"/>
<path d="M1830 1427 c0 -8 -8 -18 -17 -20 -17 -4 -17 -5 0 -6 18 -1 35 25 23
36 -3 4 -6 -1 -6 -10z"/>
<path d="M1938 1433 c7 -3 16 -2 19 1 4 3 -2 6 -13 5 -11 0 -14 -3 -6 -6z"/>
<path d="M2187 1427 c-7 -19 20 -50 38 -44 8 4 15 18 15 32 0 20 -5 25 -24 25
-13 0 -26 -6 -29 -13z"/>
<path d="M577 1423 c-4 -3 -7 -15 -7 -25 0 -13 7 -18 25 -18 26 0 29 7 19 34
-6 16 -26 21 -37 9z"/>
<path d="M2060 1420 c0 -5 4 -10 9 -10 6 0 13 5 16 10 3 6 -1 10 -9 10 -9 0
-16 -4 -16 -10z"/>
<path d="M1250 1401 c0 -25 6 -27 13 -6 4 8 2 17 -3 20 -6 4 -10 -3 -10 -14z"/>
<path d="M1448 1413 c7 -3 16 -2 19 1 4 3 -2 6 -13 5 -11 0 -14 -3 -6 -6z"/>
<path d="M881 1384 c0 -11 3 -14 6 -6 3 7 2 16 -1 19 -3 4 -6 -2 -5 -13z"/>
<path d="M931 1384 c0 -11 3 -14 6 -6 3 7 2 16 -1 19 -3 4 -6 -2 -5 -13z"/>
<path d="M2105 1380 c-18 -20 -18 -21 3 -43 18 -17 26 -19 40 -11 24 16 27 43
5 59 -24 19 -27 18 -48 -5z"/>
<path d="M480 1356 c0 -32 18 -43 37 -23 20 20 10 47 -17 47 -15 0 -20 -7 -20
-24z"/>
<path d="M1008 1373 c7 -3 16 -2 19 1 4 3 -2 6 -13 5 -11 0 -14 -3 -6 -6z"/>
<path d="M1350 1370 c-18 -11 -4 -42 17 -38 10 2 19 10 21 19 4 19 -19 31 -38
19z"/>
<path d="M707 1363 c-13 -12 -7 -23 13 -23 13 0 18 5 14 15 -7 16 -17 19 -27
8z"/>
<path d="M1277 1364 c-13 -13 -7 -24 14 -24 11 0 19 5 17 12 -5 14 -22 21 -31
12z"/>
<path d="M1420 1360 c0 -5 5 -10 10 -10 6 0 10 5 10 10 0 6 -4 10 -10 10 -5 0
-10 -4 -10 -10z"/>
<path d="M1477 1364 c-4 -4 -7 -18 -7 -31 0 -19 5 -23 31 -23 27 0 30 3 27 28
-3 26 -34 43 -51 26z"/>
<path d="M1840 1360 c0 -5 5 -10 10 -10 6 0 10 5 10 10 0 6 -4 10 -10 10 -5 0
-10 -4 -10 -10z"/>
<path d="M565 1330 c3 -5 10 -10 16 -10 5 0 9 5 9 10 0 6 -7 10 -16 10 -8 0
-12 -4 -9 -10z"/>
<path d="M1086 1323 c-6 -14 -5 -15 5 -6 7 7 10 15 7 18 -3 3 -9 -2 -12 -12z"/>
<path d="M1680 1329 c0 -5 5 -7 10 -4 6 3 10 8 10 11 0 2 -4 4 -10 4 -5 0 -10
-5 -10 -11z"/>
<path d="M641 1310 c-19 -11 -9 -45 14 -45 13 0 21 8 23 21 3 23 -17 37 -37
24z"/>
<path d="M1143 1303 c9 -2 23 -2 30 0 6 3 -1 5 -18 5 -16 0 -22 -2 -12 -5z"/>
<path d="M2060 1295 c0 -8 9 -15 20 -15 11 0 20 7 20 15 0 8 -9 15 -20 15 -11
0 -20 -7 -20 -15z"/>
<path d="M571 1274 c0 -11 3 -14 6 -6 3 7 2 16 -1 19 -3 4 -6 -2 -5 -13z"/>
<path d="M1021 1264 c0 -11 3 -14 6 -6 3 7 2 16 -1 19 -3 4 -6 -2 -5 -13z"/>
<path d="M696 1254 c-9 -22 1 -34 30 -34 19 0 24 5 24 25 0 20 -5 25 -24 25
-13 0 -27 -7 -30 -16z"/>
<path d="M1148 1253 c7 -3 16 -2 19 1 4 3 -2 6 -13 5 -11 0 -14 -3 -6 -6z"/>
<path d="M1248 1243 c7 -3 16 -2 19 1 4 3 -2 6 -13 5 -11 0 -14 -3 -6 -6z"/>
<path d="M2031 1237 c-17 -21 -3 -47 26 -47 21 0 24 4 21 27 -3 31 -29 41 -47
20z"/>
<path d="M574 1225 c-10 -25 4 -45 30 -45 13 0 26 7 30 15 9 25 -5 45 -30 45
-14 0 -27 -7 -30 -15z"/>
<path d="M1108 1213 c7 -3 16 -2 19 1 4 3 -2 6 -13 5 -11 0 -14 -3 -6 -6z"/>
<path d="M1285 1209 c-11 -16 -1 -19 13 -3 7 8 8 14 3 14 -5 0 -13 -5 -16 -11z"/>
<path d="M1141 1194 c0 -11 3 -14 6 -6 3 7 2 16 -1 19 -3 4 -6 -2 -5 -13z"/>
<path d="M1551 1194 c0 -11 3 -14 6 -6 3 7 2 16 -1 19 -3 4 -6 -2 -5 -13z"/>
<path d="M2200 1194 c0 -8 5 -12 10 -9 6 4 8 11 5 16 -9 14 -15 11 -15 -7z"/>
<path d="M2114 1185 c-8 -19 12 -36 32 -28 17 6 10 37 -9 41 -10 2 -20 -4 -23
-13z"/>
<path d="M667 1183 c-4 -3 -7 -17 -7 -30 0 -16 6 -23 19 -23 23 0 32 19 19 43
-9 18 -20 22 -31 10z"/>
<path d="M746 1175 c-3 -9 0 -15 9 -15 9 0 12 6 9 15 -4 8 -7 15 -9 15 -2 0
-5 -7 -9 -15z"/>
<path d="M1431 1174 c0 -11 3 -14 6 -6 3 7 2 16 -1 19 -3 4 -6 -2 -5 -13z"/>
<path d="M1487 1171 c-4 -17 -3 -21 5 -13 5 5 8 16 6 23 -3 8 -7 3 -11 -10z"/>
<path d="M1940 1165 c-13 -16 -5 -35 15 -35 22 0 28 19 12 35 -13 12 -17 13
-27 0z"/>
<path d="M787 1143 c-15 -14 -7 -63 12 -73 25 -13 24 -13 51 10 21 18 22 23
10 45 -13 24 -57 35 -73 18z"/>
<path d="M2011 1136 c-22 -26 -6 -48 31 -44 28 2 33 7 33 28 0 19 -6 26 -26
28 -14 2 -31 -4 -38 -12z"/>
<path d="M585 1120 c3 -5 8 -10 11 -10 2 0 4 5 4 10 0 6 -5 10 -11 10 -5 0 -7
-4 -4 -10z"/>
<path d="M1105 1119 c-11 -16 -1 -19 13 -3 7 8 8 14 3 14 -5 0 -13 -5 -16 -11z"/>
<path d="M1864 1106 c-11 -29 1 -61 23 -64 31 -5 47 28 27 56 -17 25 -42 29
-50 8z"/>
<path d="M1388 1093 c7 -3 16 -2 19 1 4 3 -2 6 -13 5 -11 0 -14 -3 -6 -6z"/>
<path d="M890 1050 c0 -15 7 -20 25 -20 18 0 25 5 25 20 0 15 -7 20 -25 20
-18 0 -25 -5 -25 -20z"/>
<path d="M984 1046 c-9 -24 4 -48 23 -44 12 2 18 12 18 28 0 29 -32 41 -41 16z"/>
<path d="M1965 1040 c-23 -8 -26 -29 -8 -48 10 -10 16 -10 33 0 35 22 15 63
-25 48z"/>
<path d="M1786 1033 c-11 -11 -6 -23 9 -23 8 0 15 4 15 9 0 13 -16 22 -24 14z"/>
<path d="M742 1008 c4 -30 43 -33 43 -3 0 13 -8 21 -23 23 -20 3 -23 0 -20
-20z"/>
<path d="M1843 1005 c-59 -25 -36 -99 29 -97 17 0 35 5 41 11 17 17 12 70 -9
86 -23 17 -21 17 -61 0z"/>
<path d="M1684 996 c-11 -28 4 -48 33 -44 22 2 28 8 28 28 0 20 -6 26 -28 28
-18 2 -29 -2 -33 -12z"/>
<path d="M860 990 c0 -5 5 -10 10 -10 6 0 10 5 10 10 0 6 -4 10 -10 10 -5 0
-10 -4 -10 -10z"/>
<path d="M940 975 c0 -8 7 -15 15 -15 8 0 15 4 15 9 0 5 -7 11 -15 15 -9 3
-15 0 -15 -9z"/>
<path d="M1045 974 c-9 -9 -14 -23 -11 -31 3 -8 6 -19 6 -24 0 -19 55 -9 68
12 11 18 11 24 -4 40 -21 23 -38 24 -59 3z"/>
<path d="M1170 975 c-26 -32 13 -81 48 -59 34 22 22 74 -18 74 -10 0 -23 -7
-30 -15z"/>
<path d="M1572 978 c-17 -17 -15 -32 7 -52 15 -14 24 -15 40 -6 35 18 21 70
-19 70 -9 0 -21 -5 -28 -12z"/>
<path d="M1388 959 c-12 -6 -18 -22 -18 -44 0 -29 4 -36 27 -41 51 -13 82 38
47 77 -19 21 -31 23 -56 8z"/>
<path d="M874 925 c-9 -23 3 -45 24 -45 25 0 44 23 36 44 -8 20 -53 21 -60 1z"/>
<path d="M1280 914 c0 -21 4 -25 23 -22 14 2 23 11 25 26 3 18 -1 22 -22 22
-21 0 -26 -5 -26 -26z"/>
<path d="M1662 917 c-10 -11 -9 -17 2 -26 18 -15 31 2 18 25 -7 13 -10 13 -20
1z"/>
<path d="M990 895 c0 -8 5 -15 10 -15 6 0 10 7 10 15 0 8 -4 15 -10 15 -5 0
-10 -7 -10 -15z"/>
<path d="M1730 885 c-12 -23 -12 -28 7 -46 38 -38 89 3 63 51 -15 28 -54 26
-70 -5z"/>
<path d="M1166 868 c-22 -12 -20 -55 3 -68 31 -16 51 -2 51 35 0 36 -23 50
-54 33z"/>
<path d="M1520 861 c0 -11 5 -23 10 -26 18 -11 50 6 50 26 0 14 -7 19 -30 19
-23 0 -30 -5 -30 -19z"/>
<path d="M1290 835 c0 -8 9 -15 20 -15 11 0 20 7 20 15 0 8 -9 15 -20 15 -11
0 -20 -7 -20 -15z"/>
<path d="M1447 842 c-13 -3 -17 -11 -15 -30 2 -21 8 -27 28 -27 20 0 26 6 28
26 3 28 -10 38 -41 31z"/>
<path d="M940 830 c0 -5 5 -10 10 -10 6 0 10 5 10 10 0 6 -4 10 -10 10 -5 0
-10 -4 -10 -10z"/>
<path d="M1370 825 c0 -9 5 -15 11 -13 6 2 11 8 11 13 0 5 -5 11 -11 13 -6 2
-11 -4 -11 -13z"/>
<path d="M1665 830 c-3 -5 -1 -10 4 -10 6 0 11 5 11 10 0 6 -2 10 -4 10 -3 0
-8 -4 -11 -10z"/>
<path d="M100 572 c-67 -33 -66 -112 2 -145 31 -15 43 -16 82 -6 44 11 56 22
37 33 -5 4 -11 1 -13 -5 -2 -5 -21 -13 -43 -16 -79 -10 -123 60 -70 112 25 26
63 32 96 15 11 -6 25 -8 31 -4 7 5 -1 12 -23 20 -47 17 -59 17 -99 -4z"/>
<path d="M449 563 c-6 -16 -23 -54 -40 -85 -20 -42 -25 -58 -15 -58 8 0 16 9
19 20 8 30 92 29 117 -2 10 -13 21 -21 24 -18 7 8 -73 170 -84 170 -6 0 -15
-12 -21 -27z m41 -39 c15 -39 13 -44 -20 -44 -32 0 -38 16 -20 51 15 26 29 24
40 -7z"/>
<path d="M850 505 l0 -85 73 2 72 2 -62 3 -63 4 0 79 c0 47 -4 80 -10 80 -6 0
-10 -35 -10 -85z"/>
<path d="M2310 505 l0 -85 78 2 77 2 -67 3 -68 4 0 79 c0 47 -4 80 -10 80 -6
0 -10 -35 -10 -85z"/>
<path d="M2525 506 l0 -85 73 -3 c39 -2 72 0 72 5 0 4 -27 7 -60 7 l-60 0 0
80 c0 57 -4 80 -12 80 -10 0 -13 -24 -13 -84z"/>
<path d="M2775 573 c-16 -9 -33 -21 -37 -27 -11 -16 -10 -74 2 -96 10 -19 71
-42 93 -35 7 2 24 6 40 9 15 4 27 13 27 21 0 12 -4 12 -27 -1 -64 -33 -123 -7
-123 55 0 30 6 42 25 55 27 18 80 21 90 6 7 -12 35 -13 35 -2 0 8 -67 32 -86
32 -5 -1 -22 -8 -39 -17z"/>
<path d="M1488 548 c-57 -19 -41 -68 22 -68 43 0 74 -25 49 -41 -19 -12 -66
-11 -91 2 -16 9 -19 8 -16 -2 5 -16 58 -28 93 -21 32 6 51 37 35 57 -6 8 -32
17 -56 21 -50 7 -60 16 -39 34 10 8 29 10 57 6 46 -8 47 0 2 13 -16 4 -41 4
-56 -1z"/>
<path d="M1689 549 c-37 -14 -55 -59 -37 -95 32 -66 148 -45 148 28 0 27 -30
68 -49 68 -5 0 -15 2 -23 4 -7 3 -25 0 -39 -5z m73 -26 c20 -18 24 -63 6 -81
-17 -17 -74 -15 -92 4 -51 51 32 126 86 77z"/>
<path d="M1073 485 c-17 -36 -28 -65 -23 -65 4 0 10 7 14 15 4 10 20 15 51 15
33 0 45 -4 45 -15 0 -8 7 -15 15 -15 11 0 7 15 -17 65 -18 36 -37 65 -43 65
-6 0 -25 -29 -42 -65z m57 26 c0 -5 3 -16 6 -25 5 -12 0 -16 -20 -16 -27 0
-31 7 -20 34 7 17 34 22 34 7z"/>
<path d="M1258 485 c-2 -47 0 -65 10 -65 7 0 12 13 12 30 0 25 4 30 25 30 18
0 31 -9 43 -30 9 -16 23 -30 30 -30 9 0 8 7 -4 25 -15 24 -15 27 0 44 33 37 7
61 -67 61 l-45 0 -4 -65z m103 39 c10 -13 10 -17 -2 -25 -19 -12 -66 -11 -74
1 -22 35 49 57 76 24z"/>
<path d="M1872 483 l1 -68 6 55 6 55 52 -52 c29 -29 57 -53 63 -53 6 0 10 27
10 65 0 42 -4 65 -11 65 -8 0 -10 -15 -7 -45 3 -25 1 -45 -4 -45 -5 0 -29 20
-54 45 -24 25 -48 45 -54 45 -6 0 -9 -28 -8 -67z"/>
<path d="M300 424 c0 -8 5 -12 10 -9 6 4 8 11 5 16 -9 14 -15 11 -15 -7z"/>
<path d="M2096 432 c-3 -6 -1 -14 5 -17 15 -10 25 3 12 16 -7 7 -13 7 -17 1z"/>
</g>
</svg>
